<svg width="100" height="100" viewBox="0 0 100 100" xmlns="http://www.w3.org/2000/svg">
  <!-- Cookie base -->
  <circle cx="50" cy="50" r="45" fill="#d1d5db" stroke="#9ca3af" stroke-width="1"/>
  
  <!-- Bite marks for cookie shape -->
  <circle cx="15" cy="25" r="12" fill="white"/>
  <circle cx="85" cy="70" r="10" fill="white"/>
  <circle cx="25" cy="85" r="8" fill="white"/>
  
  <!-- Chocolate chips -->
  <circle cx="35" cy="35" r="4" fill="#6b7280"/>
  <circle cx="60" cy="30" r="3.5" fill="#6b7280"/>
  <circle cx="45" cy="50" r="4.5" fill="#6b7280"/>
  <circle cx="70" cy="45" r="3" fill="#6b7280"/>
  <circle cx="30" cy="60" r="3.5" fill="#6b7280"/>
  <circle cx="65" cy="65" r="4" fill="#6b7280"/>
  <circle cx="55" cy="75" r="3" fill="#6b7280"/>
  <circle cx="40" cy="70" r="3.5" fill="#6b7280"/>
  
  <!-- Additional smaller chips -->
  <circle cx="25" cy="45" r="2" fill="#6b7280"/>
  <circle cx="75" cy="55" r="2.5" fill="#6b7280"/>
  <circle cx="50" cy="65" r="2" fill="#6b7280"/>
  
  <!-- Cookie texture (small dots) -->
  <circle cx="42" cy="40" r="1" fill="#9ca3af" opacity="0.7"/>
  <circle cx="58" cy="38" r="1" fill="#9ca3af" opacity="0.7"/>
  <circle cx="48" cy="55" r="1" fill="#9ca3af" opacity="0.7"/>
  <circle cx="62" cy="52" r="1" fill="#9ca3af" opacity="0.7"/>
  <circle cx="38" cy="65" r="1" fill="#9ca3af" opacity="0.7"/>
  <circle cx="68" cy="60" r="1" fill="#9ca3af" opacity="0.7"/>
</svg>